<svg width="280" height="178" viewBox="0 0 280 178" fill="none" xmlns="http://www.w3.org/2000/svg">
<path d="M84.9767 94.118H37.7441C35.9462 94.118 34.478 92.6573 34.478 90.8687V89.7956C34.478 88.007 35.9462 86.5464 37.7441 86.5464H84.9767C86.7745 86.5464 88.2427 88.007 88.2427 89.7956V90.8687C88.2427 92.6573 86.7745 94.118 84.9767 94.118Z" fill="#F2F2F2"/>
<path d="M75.4484 97.8937C75.4484 95.817 77.1564 94.1079 79.2538 94.1079H52.8159C54.9034 94.1079 56.6213 95.807 56.6213 97.8937C56.6213 99.9804 54.9134 101.68 52.8159 101.68H79.2538C77.1663 101.68 75.4484 99.9804 75.4484 97.8937Z" fill="#F2F2F2"/>
<path d="M107 109.251H46.1938C44.396 109.251 42.9277 107.791 42.9277 106.002V104.929C42.9277 103.14 44.396 101.68 46.1938 101.68H107C108.798 101.68 110.266 103.14 110.266 104.929V106.002C110.266 107.791 108.798 109.251 107 109.251Z" fill="#F2F2F2"/>
<path d="M204.392 122.775H162.772C160.975 122.775 159.506 121.314 159.506 119.525V118.452C159.506 116.664 160.975 115.203 162.772 115.203H204.392C206.19 115.203 207.658 116.664 207.658 118.452V119.525C207.658 121.314 206.19 122.775 204.392 122.775Z" fill="#F2F2F2"/>
<path d="M198.239 126.561C198.239 124.484 199.947 122.775 202.044 122.775H185.694C187.782 122.775 189.5 124.474 189.5 126.561C189.5 128.647 187.792 130.346 185.694 130.346H202.044C199.947 130.346 198.239 128.637 198.239 126.561Z" fill="#F2F2F2"/>
<path d="M217.446 137.908H182.439C180.641 137.908 179.173 136.447 179.173 134.659V133.586C179.173 131.797 180.641 130.336 182.439 130.336H217.446C219.244 130.336 220.712 131.797 220.712 133.586V134.659C220.712 136.447 219.234 137.908 217.446 137.908Z" fill="#F2F2F2"/>
<path d="M95.9033 159.043V72.5957C95.9033 63.0567 103.894 55.3262 113.742 55.3262H171.162C181.01 55.3262 189 63.0567 189 72.5957V160.126" fill="white"/>
<path d="M278.292 177.654H1.70793C0.759078 177.654 0 176.889 0 175.954V175.388C0 174.444 0.769066 173.689 1.70793 173.689H278.282C279.231 173.689 279.99 174.454 279.99 175.388V175.954C280 176.889 279.231 177.654 278.292 177.654Z" fill="#F2F2F2"/>
<path d="M180.001 171.454H276.614" stroke="#4A4A4A" stroke-width="3.5" stroke-miterlimit="10" stroke-linecap="round" stroke-linejoin="round"/>
<path d="M1.99756 171.454H170.962" stroke="#4A4A4A" stroke-width="3.5" stroke-miterlimit="10" stroke-linecap="round" stroke-linejoin="round"/>
<path d="M95.9033 80.2466V72.4068C95.9033 62.8678 103.894 55.1372 113.742 55.1372H171.162C181.01 55.1372 189 62.8678 189 72.4068V159.937" fill="white"/>
<path d="M95.9033 80.2466V72.4068C95.9033 62.8678 103.894 55.1372 113.742 55.1372H171.162C181.01 55.1372 189 62.8678 189 72.4068V159.937" stroke="#4A4A4A" stroke-width="3.5" stroke-miterlimit="10" stroke-linecap="round" stroke-linejoin="round"/>
<path d="M175.138 56.2202V140.938C175.138 146.523 169.654 151.054 162.883 151.054C162.883 151.054 121.852 151.352 98.0713 151.56L98.1312 158.317C102.915 158.317 187.732 158.804 187.732 158.804L187.842 68.8892C187.852 61.8939 182.159 56.2202 175.138 56.2202Z" fill="#F2F2F2" style="mix-blend-mode:multiply"/>
<path d="M95.9033 88.0169V86.0396" stroke="#4A4A4A" stroke-width="3.5" stroke-miterlimit="10" stroke-linecap="round" stroke-linejoin="round"/>
<path d="M95.9033 158.854V94.2471" stroke="#4A4A4A" stroke-width="3.5" stroke-miterlimit="10" stroke-linecap="round" stroke-linejoin="round"/>
<path d="M87.0342 168.602L87.1341 162.66C87.144 161.129 88.7821 159.897 90.7896 159.907L194.274 160.553C196.281 160.563 197.9 161.815 197.89 163.345L197.79 169.287" fill="white"/>
<path d="M87.0342 168.602L87.1341 162.66C87.144 161.129 88.7821 159.897 90.7896 159.907L194.274 160.553C196.281 160.563 197.9 161.815 197.89 163.345L197.79 169.287" stroke="#4A4A4A" stroke-width="3.5" stroke-miterlimit="10" stroke-linecap="round" stroke-linejoin="round"/>
<path d="M173.919 79.1037C177.808 79.1037 180.96 75.9673 180.96 72.0985C180.96 68.2296 177.808 65.0933 173.919 65.0933C170.03 65.0933 166.877 68.2296 166.877 72.0985C166.877 75.9673 170.03 79.1037 173.919 79.1037Z" fill="#F2F2F2"/>
<path d="M171.522 63.8811C173.559 62.8875 176.076 63.2353 177.774 64.9145C179.902 67.031 179.902 70.4591 177.774 72.5755C175.647 74.692 172.201 74.692 170.074 72.5755C168.835 71.3434 168.326 69.6741 168.516 68.0743" fill="#16C7DD"/>
<path d="M171.522 63.8811C173.559 62.8875 176.076 63.2353 177.774 64.9145C179.902 67.031 179.902 70.4591 177.774 72.5755C175.647 74.692 172.201 74.692 170.074 72.5755C168.835 71.3434 168.326 69.6741 168.516 68.0743" stroke="#4A4A4A" stroke-width="3" stroke-miterlimit="10" stroke-linecap="round" stroke-linejoin="round"/>
<path d="M80.632 64.5075C82.1876 64.5075 83.4486 63.2529 83.4486 61.7054C83.4486 60.1579 82.1876 58.9033 80.632 58.9033C79.0765 58.9033 77.8154 60.1579 77.8154 61.7054C77.8154 63.2529 79.0765 64.5075 80.632 64.5075Z" fill="white" stroke="#4A4A4A" stroke-width="3.5" stroke-miterlimit="10" stroke-linecap="round" stroke-linejoin="round"/>
<path d="M177.284 7.34293C178.84 7.34293 180.101 6.0884 180.101 4.54085C180.101 2.9933 178.84 1.73877 177.284 1.73877C175.729 1.73877 174.468 2.9933 174.468 4.54085C174.468 6.0884 175.729 7.34293 177.284 7.34293Z" fill="white" stroke="#4A4A4A" stroke-width="3.5" stroke-miterlimit="10" stroke-linecap="round" stroke-linejoin="round"/>
<path d="M213.461 61.6061C215.016 61.6061 216.277 60.3516 216.277 58.804C216.277 57.2565 215.016 56.002 213.461 56.002C211.905 56.002 210.644 57.2565 210.644 58.804C210.644 60.3516 211.905 61.6061 213.461 61.6061Z" fill="#16C7DD"/>
<path d="M105.592 35.8309C108.151 35.8309 110.226 33.7667 110.226 31.2204C110.226 28.6741 108.151 26.6099 105.592 26.6099C103.032 26.6099 100.958 28.6741 100.958 31.2204C100.958 33.7667 103.032 35.8309 105.592 35.8309Z" fill="#F2F2F2"/>
<path d="M86.7246 2.18604V4.40186" stroke="#16C7DD" stroke-width="3.5" stroke-miterlimit="10" stroke-linecap="round" stroke-linejoin="round"/>
<path d="M86.7246 11.1685V13.3743" stroke="#16C7DD" stroke-width="3.5" stroke-miterlimit="10" stroke-linecap="round" stroke-linejoin="round"/>
<path d="M82.9991 7.78027H80.7817" stroke="#16C7DD" stroke-width="3.5" stroke-miterlimit="10" stroke-linecap="round" stroke-linejoin="round"/>
<path d="M92.6573 7.78027H90.4399" stroke="#16C7DD" stroke-width="3.5" stroke-miterlimit="10" stroke-linecap="round" stroke-linejoin="round"/>
<path d="M204.002 28.2891V29.551" stroke="#16C7DD" stroke-width="3.5" stroke-miterlimit="10" stroke-linecap="round" stroke-linejoin="round"/>
<path d="M204.002 19.8628V21.1247" stroke="#16C7DD" stroke-width="3.5" stroke-miterlimit="10" stroke-linecap="round" stroke-linejoin="round"/>
<path d="M200.257 24.7417H198.988" stroke="#16C7DD" stroke-width="3.5" stroke-miterlimit="10" stroke-linecap="round" stroke-linejoin="round"/>
<path d="M209.016 24.7417H207.748" stroke="#16C7DD" stroke-width="3.5" stroke-miterlimit="10" stroke-linecap="round" stroke-linejoin="round"/>
<path d="M58.4089 47.0884L57.52 47.9827" stroke="#16C7DD" stroke-width="3.5" stroke-miterlimit="10" stroke-linecap="round" stroke-linejoin="round"/>
<path d="M64.4018 41.1367L63.5029 42.031" stroke="#16C7DD" stroke-width="3.5" stroke-miterlimit="10" stroke-linecap="round" stroke-linejoin="round"/>
<path d="M58.2891 41.9514L57.3901 41.0571" stroke="#16C7DD" stroke-width="3.5" stroke-miterlimit="10" stroke-linecap="round" stroke-linejoin="round"/>
<path d="M64.4814 48.1121L63.5825 47.2178" stroke="#16C7DD" stroke-width="3.5" stroke-miterlimit="10" stroke-linecap="round" stroke-linejoin="round"/>
<path d="M157.749 131.508C157.749 141.375 148.24 138.782 139.79 138.782C131.341 138.782 127.156 135.94 127.156 127.534C127.156 118.929 132.659 115.56 136.135 115.014C136.474 114.964 132.639 122.903 139.131 122.903C141.608 122.903 145.783 122.903 149.768 122.903C155.362 122.913 157.749 125.576 157.749 131.508Z" fill="#FF5050" stroke="#E02D2D" stroke-width="3.5" stroke-miterlimit="10" stroke-linecap="round" stroke-linejoin="round"/>
<path d="M143.546 132.949C135.685 132.949 129.752 131.518 131.79 122.476C132.229 120.529 133.907 118.79 134.437 117.359C130.931 118.77 128.084 122.208 128.084 127.405C128.084 135.225 131.98 137.878 139.84 137.878C147.381 137.878 155.811 138.822 156.49 131.985C153.174 133.297 148.19 132.949 143.546 132.949Z" fill="#E02D2D"/>
<path d="M157.749 119.684C157.749 129.551 148.24 126.958 139.79 126.958C131.341 126.958 127.156 124.116 127.156 115.71C127.156 107.105 132.659 103.736 136.135 103.19C136.474 103.14 132.639 111.079 139.131 111.079C141.608 111.079 145.783 111.079 149.768 111.079C155.362 111.079 157.749 113.742 157.749 119.684Z" fill="#FF5050" stroke="#E02D2D" stroke-width="3.5" stroke-miterlimit="10" stroke-linecap="round" stroke-linejoin="round"/>
<path d="M143.546 121.115C135.685 121.115 129.752 119.684 131.79 110.642C132.229 108.695 133.907 106.956 134.437 105.525C130.931 106.936 128.084 110.374 128.084 115.571C128.084 123.391 131.98 126.044 139.84 126.044C147.381 126.044 155.811 126.988 156.49 120.151C153.174 121.473 148.19 121.115 143.546 121.115Z" fill="#E02D2D"/>
<path d="M149.568 115.233H150.128C151.915 115.233 153.364 116.674 153.364 118.452" stroke="white" stroke-width="3.5" stroke-miterlimit="10" stroke-linecap="round" stroke-linejoin="round"/>
<path d="M149.549 160.215H135.905C133.168 160.215 130.901 159.221 130.711 156.509L128.045 139.895C127.955 139.348 128.384 138.852 128.944 138.852H156.53C157.089 138.852 157.519 139.348 157.429 139.895L154.762 156.509C154.562 159.221 152.285 160.215 149.549 160.215Z" fill="white" stroke="#4A4A4A" stroke-width="3.5" stroke-miterlimit="10" stroke-linecap="round" stroke-linejoin="round"/>
<path d="M150.238 140.461L149.119 149.623C148.959 151.461 147.021 152.882 144.694 152.882L131.73 152.832L132.309 155.515C132.469 157.353 132.699 158.526 136.045 158.526H149.399C151.726 158.526 152.834 158.248 152.994 156.419L155.531 140.461H150.238Z" fill="#F2F2F2" style="mix-blend-mode:multiply"/>
<path d="M62.534 146.066C62.534 155.933 53.0256 153.34 44.5758 153.34C36.1261 153.34 31.9512 150.498 31.9512 142.091C31.9512 133.486 37.4545 130.118 40.9303 129.572C41.2699 129.522 37.4345 137.461 43.9266 137.461C46.4036 137.461 50.5786 137.461 54.5637 137.461C60.1469 137.461 62.534 140.124 62.534 146.066Z" fill="#FF5050" stroke="#E02D2D" stroke-width="3.5" stroke-miterlimit="10" stroke-linecap="round" stroke-linejoin="round"/>
<path d="M48.3313 147.497C40.4709 147.497 34.5381 146.066 36.5756 137.024C37.0151 135.076 38.693 133.338 39.2224 131.907C35.7167 133.318 32.8701 136.756 32.8701 141.952C32.8701 149.772 36.7654 152.425 44.6258 152.425C52.1667 152.425 60.5965 153.369 61.2756 146.533C57.9597 147.855 52.9857 147.497 48.3313 147.497Z" fill="#E02D2D"/>
<path d="M62.5338 134.232C62.5338 144.098 53.0253 141.505 44.5756 141.505C36.1258 141.505 31.9409 138.663 31.9409 130.257C31.9409 121.652 37.4442 118.284 40.92 117.737C41.2596 117.687 37.4243 125.627 43.9164 125.627C46.3934 125.627 50.5683 125.627 54.5535 125.627C60.1467 125.637 62.5338 128.29 62.5338 134.232Z" fill="#FF5050" stroke="#E02D2D" stroke-width="3.5" stroke-miterlimit="10" stroke-linecap="round" stroke-linejoin="round"/>
<path d="M48.3309 135.672C40.4704 135.672 34.5376 134.241 36.5751 125.199C37.0146 123.252 38.6926 121.513 39.2219 120.082C35.7162 121.493 32.8696 124.931 32.8696 130.128C32.8696 137.948 36.7649 140.601 44.6254 140.601C52.1662 140.601 60.596 141.545 61.2751 134.708C57.9592 136.02 52.9852 135.672 48.3309 135.672Z" fill="#E02D2D"/>
<path d="M54.3535 129.78H54.9128C56.7007 129.78 58.1489 131.221 58.1489 133" stroke="white" stroke-width="3.5" stroke-miterlimit="10" stroke-linecap="round" stroke-linejoin="round"/>
<path d="M54.3437 174.762H40.6903C37.9536 174.762 35.6863 173.769 35.4966 171.056L32.8298 154.442C32.7399 153.896 33.1694 153.399 33.7287 153.399H61.3152C61.8745 153.399 62.304 153.896 62.2141 154.442L59.5474 171.056C59.3476 173.769 57.0804 174.762 54.3437 174.762Z" fill="white" stroke="#4A4A4A" stroke-width="3.5" stroke-miterlimit="10" stroke-linecap="round" stroke-linejoin="round"/>
<path d="M55.0227 155.009L53.904 164.17C53.7442 166.008 51.8066 167.429 49.4794 167.429L36.5151 167.38L37.0944 170.062C37.2542 171.901 37.484 173.073 40.8299 173.073H54.1837C56.5109 173.073 57.6195 172.795 57.7793 170.967L60.3162 155.009H55.0227Z" fill="#F2F2F2" style="mix-blend-mode:multiply"/>
<path d="M246.591 174.762H232.947C230.21 174.762 227.943 173.769 227.753 171.056L225.087 154.442C224.997 153.896 225.426 153.399 225.986 153.399H253.572C254.131 153.399 254.561 153.896 254.471 154.442L251.804 171.056C251.594 173.769 249.327 174.762 246.591 174.762Z" fill="white" stroke="#4A4A4A" stroke-width="3.5" stroke-miterlimit="10" stroke-linecap="round" stroke-linejoin="round"/>
<path d="M247.27 155.009L246.151 164.17C245.991 166.008 244.054 167.429 241.726 167.429L228.762 167.38L229.342 170.062C229.501 171.901 229.731 173.073 233.077 173.073H246.431C248.758 173.073 249.867 172.795 250.026 170.967L252.563 155.009H247.27Z" fill="#F2F2F2" style="mix-blend-mode:multiply"/>
<path d="M162.473 92.8262H122.441C120.913 92.8262 119.675 91.5941 119.675 90.0739V81.5186H165.229V90.0739C165.229 91.5941 163.991 92.8262 162.473 92.8262Z" fill="#F2F2F2"/>
<path d="M153.034 68.2334V75.1591" stroke="#4A4A4A" stroke-width="3.5" stroke-miterlimit="10" stroke-linecap="round" stroke-linejoin="round"/>
<path d="M156.79 96.1447L149.279 97.4663V89.0601H156.79V96.1447Z" fill="#FF5050" stroke="#4A4A4A" stroke-width="3.5" stroke-miterlimit="10" stroke-linecap="round" stroke-linejoin="round"/>
<path d="M157.169 66.4946H148.899C147.861 66.4946 147.022 65.6599 147.022 64.6265L145.943 39.8251C145.803 36.6951 148.32 34.0918 151.466 34.0918H154.603C157.749 34.0918 160.256 36.7051 160.126 39.8251L159.047 64.6265C159.047 65.6599 158.208 66.4946 157.169 66.4946Z" fill="white" stroke="#4A4A4A" stroke-width="3.5" stroke-miterlimit="10" stroke-linecap="round" stroke-linejoin="round"/>
<path d="M131.86 68.2334V75.1591" stroke="#4A4A4A" stroke-width="3.5" stroke-miterlimit="10" stroke-linecap="round" stroke-linejoin="round"/>
<path d="M162.473 88.1959H122.441C120.913 88.1959 119.675 86.9637 119.675 85.4435V76.8882H165.229V85.4435C165.229 86.9637 163.991 88.1959 162.473 88.1959Z" fill="white" stroke="#4A4A4A" stroke-width="3.5" stroke-miterlimit="10" stroke-linecap="round" stroke-linejoin="round"/>
<path d="M135.615 96.1447L128.104 97.4663V89.0601H135.615V96.1447Z" fill="#FF5050" stroke="#4A4A4A" stroke-width="3.5" stroke-miterlimit="10" stroke-linecap="round" stroke-linejoin="round"/>
<path d="M135.995 66.4946H127.725C126.686 66.4946 125.847 65.6599 125.847 64.6265L124.769 39.8251C124.629 36.6951 127.146 34.0918 130.292 34.0918H133.428C136.574 34.0918 139.081 36.7051 138.952 39.8251L137.873 64.6265C137.863 65.6599 137.024 66.4946 135.995 66.4946Z" fill="white" stroke="#4A4A4A" stroke-width="3.5" stroke-miterlimit="10" stroke-linecap="round" stroke-linejoin="round"/>
<path d="M105.782 65.7793H107.15V66.9419H106.681L105.702 70.668H104.184L105.782 65.7793ZM105.492 68.6907H107.899L108.199 69.7042H105.192L105.492 68.6907ZM106.701 66.9518V65.7793H107.589L109.198 70.678H107.679L106.701 66.9518Z" fill="#4A4A4A"/>
<path d="M109.997 65.7793H111.445V70.678H109.997V65.7793Z" fill="#4A4A4A"/>
<path d="M112.474 65.7793H115.929V66.922H113.922V67.866H115.74V68.949H113.922V70.678H112.474V65.7793Z" fill="#4A4A4A"/>
<path d="M116.789 65.7793H118.237V70.678H116.789V65.7793Z" fill="#4A4A4A"/>
</svg>
